<svg width="20" height="23" viewBox="0 0 20 23" fill="none" xmlns="http://www.w3.org/2000/svg">
<path d="M3.73714 22.5286C3.09714 22.5286 2.55238 22.3038 2.10286 21.8543C1.65333 21.4048 1.42857 20.8605 1.42857 20.2214V2.52857H0V1.1H5.71429V0H14.2857V1.1H20V2.52857H18.5714V20.2214C18.5714 20.8786 18.3514 21.4276 17.9114 21.8686C17.4714 22.3095 16.9219 22.5295 16.2629 22.5286H3.73714ZM17.1429 2.52857H2.85714V20.2214C2.85714 20.4776 2.93952 20.6881 3.10429 20.8529C3.26905 21.0176 3.48 21.1 3.73714 21.1H16.2643C16.4833 21.1 16.6848 21.0086 16.8686 20.8257C17.0524 20.6429 17.1438 20.441 17.1429 20.22V2.52857ZM6.86857 18.2429H8.29714V5.38571H6.86857V18.2429ZM11.7029 18.2429H13.1314V5.38571H11.7029V18.2429Z" fill="#670505"/>
</svg>
