<svg width="26" height="26" viewBox="0 0 26 26" fill="none" xmlns="http://www.w3.org/2000/svg">
<path d="M5.23527 6.64746H3.82351C3.07467 6.64746 2.3565 6.94494 1.82699 7.47445C1.29748 8.00396 1 8.72213 1 9.47097V22.1768C1 22.9256 1.29748 23.6438 1.82699 24.1733C2.3565 24.7028 3.07467 25.0003 3.82351 25.0003H16.5293C17.2782 25.0003 17.9963 24.7028 18.5258 24.1733C19.0553 23.6438 19.3528 22.9256 19.3528 22.1768V20.765" stroke="#03109A" stroke-width="2" stroke-linecap="round" stroke-linejoin="round"/>
<path d="M17.9411 3.82366L22.1764 8.05893M24.1317 6.0613C24.6877 5.50528 25.0001 4.75116 25.0001 3.96484C25.0001 3.17851 24.6877 2.4244 24.1317 1.86838C23.5757 1.31237 22.8215 1 22.0352 1C21.2489 1 20.4948 1.31237 19.9388 1.86838L8.05884 13.706V17.9412H12.2941L24.1317 6.0613Z" stroke="#03109A" stroke-width="2" stroke-linecap="round" stroke-linejoin="round"/>
</svg>
