<svg width="307" height="351" viewBox="0 0 307 351" fill="none" xmlns="http://www.w3.org/2000/svg">
<g filter="url(#filter0_d_7879_432)">
<rect y="1" width="293" height="337" rx="16" fill="#45AEFA"/>
<path fill-rule="evenodd" clip-rule="evenodd" d="M119.333 116.667C119.333 109.594 122.143 102.811 127.144 97.8105C132.145 92.8095 138.928 90 146 90C153.072 90 159.855 92.8095 164.856 97.8105C169.857 102.811 172.667 109.594 172.667 116.667C172.667 123.739 169.857 130.522 164.856 135.523C159.855 140.524 153.072 143.333 146 143.333C138.928 143.333 132.145 140.524 127.144 135.523C122.143 130.522 119.333 123.739 119.333 116.667ZM119.333 156.667C110.493 156.667 102.014 160.179 95.7631 166.43C89.5119 172.681 86 181.159 86 190C86 195.304 88.1071 200.391 91.8579 204.142C95.6086 207.893 100.696 210 106 210H186C191.304 210 196.391 207.893 200.142 204.142C203.893 200.391 206 195.304 206 190C206 181.159 202.488 172.681 196.237 166.43C189.986 160.179 181.507 156.667 172.667 156.667H119.333Z" fill="white"/>
<path d="M106.777 247.08V264.36C106.777 266.253 107.27 267.707 108.257 268.72C109.243 269.707 110.63 270.2 112.417 270.2C114.23 270.2 115.63 269.707 116.617 268.72C117.603 267.707 118.097 266.253 118.097 264.36V247.08H123.737V264.32C123.737 266.693 123.217 268.707 122.177 270.36C121.163 271.987 119.79 273.213 118.057 274.04C116.35 274.867 114.443 275.28 112.337 275.28C110.257 275.28 108.363 274.867 106.657 274.04C104.977 273.213 103.643 271.987 102.657 270.36C101.67 268.707 101.177 266.693 101.177 264.32V247.08H106.777ZM137.447 275.36C135.634 275.36 134.007 275.04 132.567 274.4C131.127 273.733 129.981 272.84 129.127 271.72C128.301 270.6 127.847 269.36 127.767 268H133.407C133.514 268.853 133.927 269.56 134.647 270.12C135.394 270.68 136.314 270.96 137.407 270.96C138.474 270.96 139.301 270.747 139.887 270.32C140.501 269.893 140.807 269.347 140.807 268.68C140.807 267.96 140.434 267.427 139.687 267.08C138.967 266.707 137.807 266.307 136.207 265.88C134.554 265.48 133.194 265.067 132.127 264.64C131.087 264.213 130.181 263.56 129.407 262.68C128.661 261.8 128.287 260.613 128.287 259.12C128.287 257.893 128.634 256.773 129.327 255.76C130.047 254.747 131.061 253.947 132.367 253.36C133.701 252.773 135.261 252.48 137.047 252.48C139.687 252.48 141.794 253.147 143.367 254.48C144.941 255.787 145.807 257.56 145.967 259.8H140.607C140.527 258.92 140.154 258.227 139.487 257.72C138.847 257.187 137.981 256.92 136.887 256.92C135.874 256.92 135.087 257.107 134.527 257.48C133.994 257.853 133.727 258.373 133.727 259.04C133.727 259.787 134.101 260.36 134.847 260.76C135.594 261.133 136.754 261.52 138.327 261.92C139.927 262.32 141.247 262.733 142.287 263.16C143.327 263.587 144.221 264.253 144.967 265.16C145.741 266.04 146.141 267.213 146.167 268.68C146.167 269.96 145.807 271.107 145.087 272.12C144.394 273.133 143.381 273.933 142.047 274.52C140.741 275.08 139.207 275.36 137.447 275.36ZM171.184 263.44C171.184 264.24 171.131 264.96 171.024 265.6H154.824C154.957 267.2 155.517 268.453 156.504 269.36C157.491 270.267 158.704 270.72 160.144 270.72C162.224 270.72 163.704 269.827 164.584 268.04H170.624C169.984 270.173 168.757 271.933 166.944 273.32C165.131 274.68 162.904 275.36 160.264 275.36C158.131 275.36 156.211 274.893 154.504 273.96C152.824 273 151.504 271.653 150.544 269.92C149.611 268.187 149.144 266.187 149.144 263.92C149.144 261.627 149.611 259.613 150.544 257.88C151.477 256.147 152.784 254.813 154.464 253.88C156.144 252.947 158.077 252.48 160.264 252.48C162.371 252.48 164.251 252.933 165.904 253.84C167.584 254.747 168.877 256.04 169.784 257.72C170.717 259.373 171.184 261.28 171.184 263.44ZM165.384 261.84C165.357 260.4 164.837 259.253 163.824 258.4C162.811 257.52 161.571 257.08 160.104 257.08C158.717 257.08 157.544 257.507 156.584 258.36C155.651 259.187 155.077 260.347 154.864 261.84H165.384ZM180.692 256.28C181.412 255.107 182.345 254.187 183.492 253.52C184.665 252.853 185.998 252.52 187.492 252.52V258.4H186.012C184.252 258.4 182.918 258.813 182.012 259.64C181.132 260.467 180.692 261.907 180.692 263.96V275H175.092V252.84H180.692V256.28Z" fill="white"/>
</g>
<defs>
<filter id="filter0_d_7879_432" x="0" y="0" width="307" height="351" filterUnits="userSpaceOnUse" color-interpolation-filters="sRGB">
<feFlood flood-opacity="0" result="BackgroundImageFix"/>
<feColorMatrix in="SourceAlpha" type="matrix" values="0 0 0 0 0 0 0 0 0 0 0 0 0 0 0 0 0 0 127 0" result="hardAlpha"/>
<feOffset dx="7" dy="6"/>
<feGaussianBlur stdDeviation="3.5"/>
<feComposite in2="hardAlpha" operator="out"/>
<feColorMatrix type="matrix" values="0 0 0 0 0 0 0 0 0 0 0 0 0 0 0 0 0 0 0.12 0"/>
<feBlend mode="normal" in2="BackgroundImageFix" result="effect1_dropShadow_7879_432"/>
<feBlend mode="normal" in="SourceGraphic" in2="effect1_dropShadow_7879_432" result="shape"/>
</filter>
</defs>
</svg>
